# xmcd
#
# Track frame offsets: 
#        150
#        11790
#        28766
#        40463
#        54306
#        68606
#        81817
#        94695
#        106553
#        117333
#        129155
#        140637
#        155436
#
# Disc length: 2135 seconds
#
# Revision: 0
# Processed by: cddbd v1.5.2PL0 Copyright (c) Steve Scherf et al.
# Submitted via: ExactAudioCopyFreeDBPlugin 1.0
#
DISCID=a108550d
DTITLE=Doghouse Sam and his Magnatones - Knock Knock
DYEAR=2014
DGENRE=Blues
TTITLE0=Something Wrong
TTITLE1=Kings and Queens
TTITLE2=Knock Knock
TTITLE3=Road
TTITLE4=All It Takes
TTITLE5=All I Need Outta You
TTITLE6=Doghouse Boogie
TTITLE7=Time Takes Care
TTITLE8=Ce Qui Est Fait, Est Fait
TTITLE9=Scratch A Lie
TTITLE10=You Snooze, You Lose
TTITLE11=Fine Ain't Good Enough
TTITLE12=Tell A Tale
EXTD=
EXTT0=
EXTT1=
EXTT2=
EXTT3=
EXTT4=
EXTT5=
EXTT6=
EXTT7=
EXTT8=
EXTT9=
EXTT10=
EXTT11=
EXTT12=
PLAYORDER=
